<svg xmlns="http://www.w3.org/2000/svg" xmlns:xlink="http://www.w3.org/1999/xlink" width="250" height="250" viewBox="0 0 250 250">
  <defs>
    <clipPath id="clip-contacts">
      <rect width="250" height="250"/>
    </clipPath>
  </defs>
  <g id="contacts" clip-path="url(#clip-contacts)">
    <path id="ic_people_outline_24px" d="M99.07,57.067A74.056,74.056,0,0,0,70.6,63.575a72.88,72.88,0,0,0-28.472-6.508C28.4,57.067,1,64.1,1,78.219v17.9H140.2v-17.9C140.2,64.1,112.8,57.067,99.07,57.067ZM73.761,86.355H10.491V78.219c0-3.515,16.2-11.39,31.635-11.39S73.761,74.7,73.761,78.219Zm56.944,0H83.252V78.219a12.012,12.012,0,0,0-3.29-7.94A59.518,59.518,0,0,1,99.07,66.829c15.438,0,31.635,7.875,31.635,11.39Zm-88.579-35.8c12.211,0,22.145-10.218,22.145-22.779S54.337,5,42.126,5,19.981,15.218,19.981,27.779,29.915,50.559,42.126,50.559Zm0-35.8A12.877,12.877,0,0,1,54.78,27.779,12.877,12.877,0,0,1,42.126,40.8,12.877,12.877,0,0,1,29.472,27.779,12.877,12.877,0,0,1,42.126,14.763Zm56.944,35.8c12.211,0,22.145-10.218,22.145-22.779S111.281,5,99.07,5,76.925,15.218,76.925,27.779,86.858,50.559,99.07,50.559Zm0-35.8a12.877,12.877,0,0,1,12.654,13.017,12.659,12.659,0,1,1-25.308,0A12.877,12.877,0,0,1,99.07,14.763Z" transform="translate(54 74.132)"/>
  </g>
</svg>
