<svg xmlns="http://www.w3.org/2000/svg" xmlns:xlink="http://www.w3.org/1999/xlink" width="250" height="250" viewBox="0 0 250 250">
  <defs>
    <clipPath id="clip-notification">
      <rect width="250" height="250"/>
    </clipPath>
  </defs>
  <g id="notification" clip-path="url(#clip-notification)">
    <path id="ic_notifications_none_24px" d="M51.5,116.5a11.819,11.819,0,0,0,11.875-11.692H39.625A11.819,11.819,0,0,0,51.5,116.5ZM87.125,81.423V52.192c0-17.948-9.678-32.972-26.719-36.948V11.269a8.907,8.907,0,0,0-17.812,0v3.975C25.612,19.22,15.875,34.186,15.875,52.192V81.423L4,93.115v5.846H99V93.115ZM75.25,87.269H27.75V52.192c0-14.5,8.966-26.308,23.75-26.308S75.25,37.694,75.25,52.192Z" transform="translate(74 65.5)"/>
  </g>
</svg>
