<svg xmlns="http://www.w3.org/2000/svg" xmlns:xlink="http://www.w3.org/1999/xlink" width="250" height="250" viewBox="0 0 250 250">
  <defs>
    <clipPath id="clip-setting">
      <rect width="250" height="250"/>
    </clipPath>
  </defs>
  <g id="setting" clip-path="url(#clip-setting)">
    <path id="ic_settings_24px" d="M85.182,54.155A36.4,36.4,0,0,0,85.52,49.5a36.4,36.4,0,0,0-.338-4.655l10.2-7.837a2.369,2.369,0,0,0,.58-3.04L86.293,17.533a2.449,2.449,0,0,0-2.947-1.045l-12.031,4.75a35.453,35.453,0,0,0-8.166-4.655L61.313,4a2.344,2.344,0,0,0-2.368-2H39.618A2.344,2.344,0,0,0,37.25,4L35.414,16.583a37.282,37.282,0,0,0-8.166,4.655l-12.031-4.75a2.376,2.376,0,0,0-2.947,1.045L2.606,33.967a2.316,2.316,0,0,0,.58,3.04l10.2,7.837a37.043,37.043,0,0,0-.338,4.655,37.043,37.043,0,0,0,.338,4.655l-10.2,7.838a2.369,2.369,0,0,0-.58,3.04l9.664,16.435a2.449,2.449,0,0,0,2.947,1.045l12.031-4.75a35.453,35.453,0,0,0,8.166,4.655L37.25,95a2.344,2.344,0,0,0,2.368,2H58.945a2.344,2.344,0,0,0,2.368-2l1.836-12.587a37.282,37.282,0,0,0,8.166-4.655l12.031,4.75a2.376,2.376,0,0,0,2.947-1.045l9.664-16.435a2.369,2.369,0,0,0-.58-3.04Zm-35.9,11.97A16.627,16.627,0,1,1,66.193,49.5,16.788,16.788,0,0,1,49.281,66.125Z" transform="translate(75.729 70)" fill="none" stroke="#000" stroke-width="11"/>
  </g>
</svg>
